<?xml version="1.0" encoding="utf-8"?>
<svg version="1.1" xmlns="http://www.w3.org/2000/svg" x="0px" y="0px" width="512px" height="512px" viewBox="0 0 512 512">
  <!-- Dark blue background -->
  <rect width="512" height="512" fill="#1565C0"/>

  <!-- Fingerprint icon centered: translate to center, scale, then offset for fingerprint center -->
  <g transform="translate(256, 256) scale(3.2) translate(-97, -228)">
    <g>
      <path fill-rule="evenodd" clip-rule="evenodd" fill="#FFFFFF" d="M46.321,244.767c0.854,2.229,1.7,4.245,2.83,6.16
        c1.635,2.77,3.209,5.59,5.12,8.165c1.215,1.637,2.696,3.105,4.186,4.549c1.639,1.588,3.331,3.089,5.117,4.492
        c4.364,3.425,9.185,5.944,14.456,7.738c5.422,1.845,10.97,2.696,16.632,2.481c4.61-0.177,9.209-0.878,13.622-2.31
        c5.513-1.789,10.241-4.919,14.589-8.731c2.016-1.769,3.992-3.581,5.704-5.603c3.331-3.936,6.199-8.203,8.487-12.866
        c2.165-4.41,3.698-8.979,4.102-13.873c0.353-4.279,0.027-8.492-1.556-12.567c-1.868-4.812-4.655-9.073-7.893-13.01
        c-3.148-3.83-6.798-7.154-11.061-9.807c-3.563-2.217-7.212-4.131-11.395-4.781c-3.697-0.575-7.365-0.914-11.156-0.306
        c-4.492,0.721-8.802,1.856-12.938,3.709c-3.751,1.682-7.165,3.909-10.459,6.352c-2.568,1.905-4.9,4.053-6.987,6.454
        c-3.939,4.533-7.874,9.086-10.387,14.63c-1.765,3.893-3.445,7.816-3.583,12.193c-0.145,4.596,1.33,8.801,3.283,12.831
        c2.654,5.478,6.888,9.53,11.879,12.95c4.651,3.188,9.718,5.31,15.132,6.639c7.364,1.808,14.824,2.604,22.35,1.15
        c3.756-0.727,7.465-1.716,11.308-3.104c-0.625,1.392-1.64,2.063-2.674,2.648c-5.435,3.076-11.269,4.551-17.533,4.396
        c-5.065-0.124-10.097-0.652-14.975-1.92c-3.928-1.02-7.704-2.596-11.299-4.585c-3.984-2.204-7.654-4.833-10.884-7.994
        c-2.319-2.271-4.256-4.945-5.757-7.849c-1.654-3.199-2.899-6.572-3.554-10.137c-0.646-3.521-0.604-6.99,0.374-10.48
        c1.213-4.335,3.094-8.365,5.276-12.257c1.628-2.905,3.739-5.487,5.903-8.019c1.904-2.227,3.755-4.504,5.87-6.532
        c2.603-2.497,5.424-4.718,8.499-6.638c2.62-1.636,5.287-3.187,8.105-4.415c3.128-1.365,6.426-2.258,9.786-2.915
        c2.232-0.437,4.484-0.747,6.746-0.825c2.7-0.094,5.378,0.274,8.04,0.771c4.907,0.917,9.198,3.164,13.363,5.816
        c2.141,1.364,4.189,2.838,6.026,4.538c1.181,1.092,2.356,2.246,3.415,3.499c1.721,2.038,3.625,3.922,5.032,6.213
        c2.52,4.105,5.08,8.196,6.119,12.993c0.591,2.73,0.777,5.508,0.717,8.297c-0.091,4.219-0.943,8.301-2.377,12.261
        c-1.255,3.465-3.06,6.653-4.842,9.868c-2.072,3.738-4.775,6.957-7.651,10.046c-1.354,1.456-2.806,2.828-4.365,4.101
        c-1.702,1.389-3.372,2.811-5.125,4.139c-1.573,1.193-3.299,2.123-5.012,3.035c-4.278,2.277-8.928,3.402-13.707,4.122
        c-5.304,0.799-10.588,0.758-15.876-0.015c-4.549-0.665-8.884-2.075-13.088-3.906c-5.438-2.368-10.135-5.801-14.462-9.828
        c-2.976-2.769-5.558-5.847-7.721-9.251c-2.1-3.307-3.163-7.026-3.696-10.896c-0.053-0.386-0.097-0.773-0.125-1.161
        C46.238,245.269,46.281,245.11,46.321,244.767z"/>
      <path fill-rule="evenodd" clip-rule="evenodd" fill="#FFFFFF" d="M119.773,208.548c3.619,2.193,6.477,5.153,8.372,8.949
        c1.667,3.337,2.698,6.887,3.156,10.6c0.644,5.226,0.56,10.363-1.598,15.304c-1.572,3.598-3.366,7.036-5.846,10.123
        c-2.799,3.482-6.153,6.224-9.965,8.532c-2.013,1.218-4.044,2.357-6.234,3.149c-3.078,1.112-6.295,1.663-9.545,2.107
        c-5.198,0.712-10.284-0.074-15.396-0.758c-4.006-0.536-7.638-2.146-11.263-3.795c-4.1-1.867-7.462-4.662-10.011-8.339
        c-2.549-3.677-4.592-7.641-5.026-12.192c-0.246-2.577-0.027-5.171,0.477-7.716c1.003-5.062,3.492-9.446,6.308-13.686
        c1.424-2.143,2.909-4.215,4.64-6.134c1.519-1.682,3.206-3.163,4.872-4.676c2.393-2.171,5.048-4.006,7.698-5.838
        c3.72-2.569,7.727-4.525,12.175-5.526c2.637-0.593,5.318-1.093,7.986-1.121c4.883-0.051,9.759-0.002,14.501,1.732
        c7.989,2.921,13.592,8.371,17.793,15.585c2.107,3.62,3.646,7.44,4.738,11.444c1.602,5.875,2.124,11.791,0.091,17.706
        c-1.039,3.021-2.691,5.663-4.713,8.127c-4.007,4.888-8.995,8.643-14.2,12.065c-5.544,3.646-11.641,5.879-18.455,5.572
        c-0.091-0.47,0.356-0.581,0.569-0.608c2.064-0.255,3.87-1.256,5.728-2.045c1.704-0.724,3.417-1.446,5.087-2.271
        c3.49-1.726,6.722-3.821,9.856-6.115c2.336-1.709,4.526-3.595,6.575-5.599c3.016-2.951,5.644-6.259,6.855-10.426
        c1.18-4.057,1.244-8.15,0.425-12.308c-0.6-3.038-1.408-6.014-2.537-8.872c-1.511-3.828-3.752-7.252-6.345-10.465
        c-3.772-4.677-8.519-7.913-14.25-9.547c-4.199-1.198-8.568-1.41-12.923-1.04c-4.008,0.339-7.942,1.092-11.633,2.781
        c-3.547,1.624-6.825,3.691-9.872,6.125c-1.453,1.162-2.955,2.273-4.33,3.522c-2.532,2.301-4.866,4.77-6.848,7.601
        c-1.982,2.828-3.77,5.748-5.252,8.855c-2.065,4.328-2.882,8.858-2.161,13.647c0.744,4.959,3.319,8.956,6.638,12.495
        c4.663,4.974,10.764,7.177,17.263,8.47c3.014,0.6,6.076,0.951,9.139,1.021c3.388,0.077,6.724-0.569,10.055-1.177
        c4.681-0.855,8.79-3.045,12.535-5.771c2.972-2.161,5.832-4.563,7.911-7.748c2.308-3.539,4.397-7.152,5.444-11.282
        c0.901-3.551,0.788-7.117,0.31-10.732c-0.311-2.353-0.84-4.666-1.703-6.805c-1.482-3.671-3.466-7.095-7.016-9.292
        c-1.262-0.781-4.264-1.953-4.264-1.953s-0.882-2.591-2.096-4.179C113.558,205.993,117.889,207.406,119.773,208.548z"/>
      <path fill-rule="evenodd" clip-rule="evenodd" fill="#FFFFFF" d="M112.751,189.485c1.272-0.755,2.396-0.663,3.425-0.502
        c4.613,0.72,8.72,2.718,12.669,5.128c2.285,1.395,4.553,2.822,6.614,4.511c1.643,1.346,3.193,2.818,4.713,4.326
        c1.637,1.625,3.063,3.382,4.275,5.285c2.92,4.579,4.939,9.5,5.828,14.933c0.889,5.431,0.835,10.775-0.335,16.126
        c-0.893,4.081-2.468,7.934-4.473,11.557c-1.467,2.651-3.202,5.172-5.024,7.629c-1.812,2.444-3.697,4.827-5.803,6.985
        c-2.948,3.019-5.961,5.98-9.175,8.742c-2.177,1.872-4.353,3.747-6.744,5.304c-6.592,4.289-13.528,7.646-21.718,7.192
        c-3.38-0.186-6.68-0.798-9.965-1.531c0.004-0.099,0.007-0.198,0.011-0.299c1.62,0,3.243,0.055,4.86-0.009
        c4.925-0.194,9.794-0.904,14.525-2.238c2.565-0.723,4.986-1.964,7.28-3.39c1.964-1.22,4.032-2.262,5.795-3.81
        c3.089-2.707,6.148-5.444,9.098-8.306c3.083-2.992,5.959-6.165,8.668-9.506c2.668-3.291,4.853-6.88,6.69-10.662
        c1.651-3.4,2.861-6.967,3.397-10.76c0.398-2.82,0.537-5.622,0.384-8.458c-0.184-3.414-0.992-6.678-2.032-9.923
        c-1.56-4.865-4.492-8.894-7.708-12.707c-1.512-1.793-3.477-3.223-5.319-4.713c-2.695-2.182-5.619-4.033-8.594-5.818
        C120.613,192.484,116.98,190.764,112.751,189.485z"/>
      <path fill-rule="evenodd" clip-rule="evenodd" fill="#FFFFFF" d="M147.731,252.442c2.097-6.134,4.293-11.896,5.241-18.011
        c0.473-3.051,0.227-6.103-0.145-9.16c-0.36-2.96-0.708-5.917-1.403-8.82c-1.663-6.941-5-12.949-9.887-18.162
        c-1.279-1.363-2.508-2.796-3.863-4.073c-2.259-2.13-4.784-3.955-7.557-5.376c-2.872-1.471-5.824-2.753-8.942-3.658
        c-2.457-0.713-4.948-1.197-7.472-1.538c-2.863-0.387-5.742-0.661-8.63-0.706c-2.808-0.042-5.613,0.237-8.383,0.645
        c-3.37,0.495-6.701,1.246-10.058,1.833c-0.796,0.139-1.531,0.642-2.608,0.403c2.583-1.398,4.988-2.748,7.435-4.018
        c5.055-2.624,10.555-2.451,15.999-2.324c4.001,0.094,7.962,0.68,11.901,1.508c4.893,1.031,9.415,2.915,13.714,5.374
        c5.537,3.167,9.869,7.653,13.653,12.731c1.787,2.398,3.556,4.816,4.769,7.544c1.229,2.762,2.315,5.604,2.909,8.593
        c0.964,4.857,1.713,9.743,1.787,14.706c0.073,4.826-0.988,9.473-2.812,13.885c-0.891,2.153-2.448,4.03-3.705,6.032
        C149.152,250.683,148.717,251.584,147.731,252.442z"/>
      <path fill-rule="evenodd" clip-rule="evenodd" fill="#FFFFFF" d="M110.173,255.636c0,0-9.138,5.759-14.411,6.291
        c-4.835,0.489-9.685,0.426-14.367-0.895c-4.987-1.406-9.42-3.804-12.813-7.983c-2.4-2.957-4.313-6.085-5.302-9.752
        c-1.316-4.881-1.393-9.765,0.271-14.58c1.081-3.131,3.017-5.8,5.033-8.368c3.722-4.742,8.268-8.586,13.498-11.576
        c2.839-1.624,10.299-4.445,11.208-3.998c-1.406,1.279-2.563,3.869-2.563,3.869s-10.857,4.865-15.234,9.004
        c-3.608,3.413-6.829,7.174-8.736,11.869c-1.293,3.184-1.45,6.47-0.992,9.85c0.477,3.517,1.597,6.762,3.705,9.625
        c1.903,2.587,4.008,5.015,6.875,6.564c3.494,1.886,7.22,3.055,11.217,3.368c3.138,0.245,6.255,0.185,9.354-0.284
        c4.096-0.753,8.389-2.992,8.389-2.992L110.173,255.636z"/>
      <path fill-rule="evenodd" clip-rule="evenodd" fill="#FFFFFF" d="M100.036,177.564c2.278-1.054,4.483-2.238,6.813-3.082
        c1.153-0.417,2.534-0.264,3.812-0.266c5.429-0.008,10.787,0.654,16,2.157c5.277,1.521,10.298,3.667,14.854,6.806
        c5.097,3.511,8.695,8.314,11.81,13.551c1.193,2.006,2.396,4.019,3.219,6.197c1.798,4.764,3.502,9.566,4.202,14.647
        c0.458,3.324,0.894,6.694,0.208,9.994c-0.585,2.82-2.027,5.383-3.323,7.989c0.179-2.233,0.325-4.46,0.515-6.68
        c0.578-6.741-0.494-13.213-2.687-19.587c-1.651-4.799-3.796-9.351-6.732-13.444c-1.819-2.537-3.75-5.03-6.036-7.247
        c-3.048-2.956-6.715-4.743-10.488-6.431c-5.196-2.325-10.67-3.686-16.287-4.365c-4.283-0.518-8.612-0.083-12.921-0.073
        C102.019,177.734,101.019,178.142,100.036,177.564z"/>
      <path fill-rule="evenodd" clip-rule="evenodd" fill="#FFFFFF" d="M112.557,172.065c1.898-0.755,3.516-1.418,5.148-2.041
        c0.749-0.287,1.531-0.131,2.3-0.037c4.435,0.546,8.776,1.568,13.012,2.94c3.855,1.25,7.49,3.008,10.85,5.352
        c3.748,2.616,6.999,5.736,10.207,8.968c3.648,3.674,6.113,8.022,7.989,12.735c1.461,3.669,2.433,7.51,2.968,11.429
        c0.35,2.57-0.571,4.989-1.241,7.768c-0.665-1.317-0.894-2.456-1.099-3.552c-0.723-3.864-1.306-7.753-2.51-11.511
        c-1.922-5.997-4.852-11.373-9.419-15.812c-2.256-2.192-4.532-4.344-7.021-6.268c-2.796-2.162-5.889-3.786-9.137-5.134
        c-3.768-1.565-7.726-2.525-11.684-3.418c-3.025-0.682-6.127-1.015-9.224-1.283C113.407,172.177,113.119,172.133,112.557,172.065z"/>
      <path fill-rule="evenodd" clip-rule="evenodd" fill="#FFFFFF" d="M92.382,246.37c0,0-10.667,1.288-14.618-1.341
        c-2.599-1.729-4.279-4.184-4.804-7.33c-1.076-6.447,1.752-11.513,5.742-16.16c2.229-2.597,4.734-4.877,7.748-6.543
        c0.68-0.377,2.114-0.993,2.114-0.993s1.221-0.523,1.183-0.309c-0.189,1.072,0.102,3.061,0.102,3.061s-0.587,0.392-0.845,0.517
        c-1.356,0.661-5.252,4.644-5.98,5.748c-2.243,3.41-3.251,7.193-3.25,11.237c0.002,3.996,2.274,6.719,6.555,6.349
        c0.113-0.01,0.23,0.038,0.363,0.063c-3.412,1.866-7.915,0.162-8.861-4.392c-0.614-2.954-0.352-5.805,1.118-8.489
        c0.14-0.255,0.929-1.846,0.957-2.286c-1.347,0.167-1.847,1.835-2.226,2.78c-0.849,2.112-1.757,4.233-1.801,6.599
        c-0.093,4.925,3.527,8.81,8.405,9.089c2.889,0.166,8.854-0.607,8.854-0.607L92.382,246.37z"/>
      <path fill-rule="evenodd" clip-rule="evenodd" fill="#FFFFFF" d="M45.116,234.871c-0.177,0.826-0.434,1.644-0.516,2.479
        c-0.347,3.557-0.704,7.112-0.473,10.698c0.171,2.636,1.416,4.905,2.475,7.202c1.206,2.617,2.413,5.271,4.251,7.54
        c2.525,3.118,5.13,6.145,8.122,8.856c4.052,3.677,8.88,5.989,13.685,8.391c2.336,1.167,4.653,2.366,7.245,3.058
        c-0.432,0.751-1.07,0.409-1.509,0.354c-6.31-0.78-12.204-2.762-17.431-6.436c-2.785-1.956-5.244-4.296-7.609-6.767
        c-2.592-2.709-4.962-5.594-6.81-8.803c-2.551-4.431-5.035-8.988-5.271-14.282c-0.125-2.791,0.092-5.571,1.521-8.119
        c0.767-1.367,1.384-2.817,2.069-4.23C44.949,234.832,45.032,234.852,45.116,234.871z"/>
      <path fill-rule="evenodd" clip-rule="evenodd" fill="#FFFFFF" d="M118.341,187.797c-1.935,0.554-3.704,0.228-5.427,0.006
        c-3.733-0.481-7.425-0.079-11.109,0.333c-3.845,0.431-7.65,1.138-11.414,2.089c-4.226,1.067-8.278,2.565-12.208,4.432
        c-3.684,1.75-7.41,3.415-10.682,5.906c-0.132,0.101-0.27,0.211-0.416,0.065c-0.192-0.192-0.054-0.358,0.089-0.509
        c1.578-1.672,3.221-3.288,4.718-5.03c1.666-1.94,4.011-2.689,6.182-3.71c3.019-1.42,6.124-2.653,9.355-3.548
        c5.487-1.52,11.044-2.561,16.732-3.012c3.988-0.317,7.839,0.047,11.545,1.524C116.586,186.694,117.619,186.905,118.341,187.797z"/>
      <path fill-rule="evenodd" clip-rule="evenodd" fill="#FFFFFF" d="M105.083,288.688c-19.619,8.657-40.701-0.556-49.059-13.914
        c6.797,5.751,14.391,10.063,22.859,12.805C87.518,290.374,96.293,289.716,105.083,288.688z"/>
      <path fill-rule="evenodd" clip-rule="evenodd" fill="#FFFFFF" d="M130.007,167.764c4.505,0.426,8.978,1.006,13.375,2.183
        c3.702,0.99,7.19,2.424,10.393,4.485c2.199,1.415,4.28,3.023,6.181,4.837c1.263,1.205,2.52,2.417,3.748,3.657
        c1.297,1.31,1.072,3.149,1.572,4.736c0.037,0.117-0.061,0.341-0.166,0.422c-0.189,0.145-0.367,0.003-0.515-0.143
        c-1.399-1.392-2.776-2.806-4.205-4.166c-1.483-1.414-3.031-2.756-4.591-4.09c-1.993-1.703-4.1-3.157-6.377-4.406
        c-3.168-1.737-6.594-2.775-10.1-3.518c-3.636-0.771-7.303-1.398-10.959-2.07c-0.948-0.175-1.906-0.273-2.83-0.586
        c-0.354-0.12-0.61-0.295-0.619-0.62c-0.01-0.361,0.37-0.299,0.62-0.383C126.998,167.611,128.5,167.718,130.007,167.764z"/>
      <path fill-rule="evenodd" clip-rule="evenodd" fill="#FFFFFF" d="M73.398,223.326c-3.574,6.681-4.612,13.429-0.809,20.397
        c3.711,6.801,9.024,10.836,17.012,10.866c-1.374,1.047-2.676,1.073-3.908,1.172c-4.438,0.356-8.185-1.466-11.372-4.521
        c-3.077-2.951-5.383-6.573-6.568-10.79c-1.246-4.436-0.833-8.703,1.971-12.549C70.872,226.329,71.983,224.745,73.398,223.326z"/>
      <path fill-rule="evenodd" clip-rule="evenodd" fill="#FFFFFF" d="M131.08,165.523c2.441-0.971,4.791-1.541,7.485-0.993
        c3.47,0.706,6.96,1.262,10.27,2.563c3.936,1.547,7.735,3.369,11.075,6.005c1.387,1.096,2.078,2.676,2.622,4.312
        c0.053,0.16,0.111,0.409-0.108,0.542c-0.284,0.173-0.405-0.123-0.603-0.219c-2.467-1.194-4.446-3.109-6.753-4.55
        c-4.778-2.984-9.94-4.832-15.471-5.8C136.78,166.889,134.004,166.169,131.08,165.523z"/>
      <path fill-rule="evenodd" clip-rule="evenodd" fill="#FFFFFF" d="M124.766,223.407c1.511,1.278,1.576,2.834,1.713,4.216
        c0.702,7.039-1.796,13.065-5.741,19.007c-1.438,2.164-4.652,4.709-4.652,4.709l-0.783-3.062c0,0,8.23-9.404,8.737-14.943
        C124.714,230.143,124.929,226.934,124.766,223.407z"/>
      <path fill-rule="evenodd" clip-rule="evenodd" fill="#FFFFFF" d="M145.324,176.979c2.511,0.317,4.58,1.539,6.641,2.747
        c2.396,1.403,4.65,3.019,6.786,4.795c2.667,2.219,5.218,4.594,6.944,7.613c0.852,1.491,0.522,3.383,0.442,5.209
        C161.182,188.495,153.411,182.59,145.324,176.979z"/>
      <path fill-rule="evenodd" clip-rule="evenodd" fill="#FFFFFF" d="M140.481,162.796c2.074-1.522,3.995-1.207,6.001-0.614
        c2.187,0.647,4.186,1.655,5.904,3.102c1.289,1.086,2.348,2.445,3.453,3.774C150.631,167.386,146.455,163.271,140.481,162.796z"/>
      <path fill-rule="evenodd" clip-rule="evenodd" fill="#FFFFFF" d="M84.434,249.809c2.171,0.301,6.739,0.522,6.739,0.522
        l-0.483,2.111C90.69,252.442,86.262,251.054,84.434,249.809z"/>
      <path fill-rule="evenodd" clip-rule="evenodd" fill="#FFFFFF" d="M113.544,206.049"/>
      <path fill="#FFFFFF" d="M97.268,228.343l0.439-1.942c0,0-0.702-0.125-1.222-0.5C96.485,225.901,95.165,228.087,97.268,228.343z"/>
      <path fill="#FFFFFF" d="M114.455,220.907c0,0-0.922,1.415-2.317,2.792c0,0,1.759,3.64-1.422,7.174l1.01,3.497
        C111.726,234.37,118.032,227.577,114.455,220.907z"/>
      <path fill="#FFFFFF" d="M115.638,218.348c0,0,0.792-1.85,0.508-3.708c0,0,6.813,2.179,6.693,12.477
        c-0.12,10.299-8.615,17.714-8.615,17.714l-0.838-3.59c0,0,6.18-6.513,6.38-12.907
        C119.967,221.938,118.414,220.096,115.638,218.348z"/>
      <path fill="#FFFFFF" d="M94.113,224.273c0,0-1.443-1.149-1.912-1.881c0,0-5.551,3.421-4.375,7.387
        c1.176,3.965,4.609,4.945,7.373,6.108l0.595-2.729c0,0-4.076-0.484-5.05-3.327C89.768,226.988,92.634,224.928,94.113,224.273z"/>
      <path fill="#FFFFFF" d="M109.672,227.823l-0.49-1.874c0,0,1.141-0.697,1.664-1.287c0.523-0.589-0.241,3.441-0.297,3.463
        C110.493,228.149,109.805,228.335,109.672,227.823z"/>
      <path fill="#FFFFFF" d="M91.468,221.493c0,0-0.991-1.603-1.115-2.252c0,0-7.891,4.261-6.486,12.051
        c1.405,7.792,10.514,8.278,10.514,8.278l0.558-2.374c0,0-6.744-0.847-8.49-6.452C84.704,225.139,91.468,221.493,91.468,221.493z"/>
    </g>
  </g>
</svg>
